<svg id="Capa_1" data-name="Capa 1" xmlns="http://www.w3.org/2000/svg" viewBox="0 0 1921 922.5"><defs><style>.cls-1{stroke:#000;stroke-miterlimit:10;}</style></defs><title>pintura1</title><path class="cls-1" d="M82.5,250.5c5.53-13.38,29.21-66.25,85-87,87.66-32.59,167.55,46.47,171,50,26,26.57,37.59,56.39,51,91,16.76,43.24,21.46,78.76,24,99a476,476,0,0,1-3,137c-11.15,67-36.66,70-52,139-16.43,73.89-16,118.66,9,164,28.29,51.21,93.35,83.49,157,77,73.81-7.52,114.11-63.94,121-74,35.4-51.66,30.39-107.32,27-145-4.45-49.5-21.22-88.72-41-135-23.53-55.05-30.65-52.66-40-86-16.81-60-6.22-112,0-141,10.22-47.55,20-93.3,60-132,6.83-6.62,70.93-66.7,158-52,89.89,15.17,130.9,97.66,142,120,6.83,13.73,18.74,38.29,21,72,2.88,42.82-11,82.35-15,93-7.81,20.89-12.61,24.61-14,40-.58,6.46-3.71,41.12,22,64,5.66,5,22.43,18.39,46,17s43-16.75,52-34c12.59-24,4.75-51.16-3-78-6.57-22.74-12.57-27.66-16-50-2.93-19.07-1.37-33.82,0-46,3.38-30,7-62.34,30-92,19.19-24.76,42.68-35.8,58-43,12.61-5.92,40.72-19,79-18,6.87.18,28.31.9,49,9,54.22,21.23,76.19,82.59,86,110,19.28,53.85,24.39,130.53-1,184-3.21,6.77-11.64,23.11-16,47-3.56,19.5-8,44.06,3,68,14,30.41,51.25,55.85,91,50,2.81-.41,39.14-6.35,58-38,14.47-24.28,10.25-49.56,6-75-5-29.67-12.85-38.94-24-70-14-39.12-30.21-84.13-19-132,2.62-11.18,11.47-49,45-75,50.68-39.31,116.82-19.87,130-16,79.72,23.42,110.18,97.8,116,112,7.37,18,17.48,42.68,11,71-3.58,15.66-9,18.32-12,36-2,12-7.82,46.16,14,65,12.21,10.55,31,14.54,47,9,29.88-10.38,34.4-48.85,35-54,2.13-18.17-3.77-25.34-12-56s-15.33-57.11-12-86c1.83-15.91,6.81-59.07,41-77,31.12-16.31,65.78-.89,72,2V.5c-640-2.33-1280,2.33-1920,0v451q24.69-66,54-135Q67.86,282.83,82.5,250.5Z" transform="translate(1 0.67)"/></svg>